
<svg id="svg" version="1.1" xmlns="http://www.w3.org/2000/svg" xmlns:xlink="http://www.w3.org/1999/xlink" width="400" height="400" viewBox="0, 0, 400,400"><g id="svgg"><path id="path0" d="M69.366 49.744 C 68.726 51.413,69.462 248.681,70.123 252.600 C 70.495 254.800,71.000 257.860,71.247 259.400 C 71.493 260.940,71.808 262.380,71.946 262.600 C 72.084 262.820,72.487 264.440,72.840 266.200 C 73.680 270.379,74.968 274.990,76.167 278.102 C 76.696 279.476,77.606 281.950,78.189 283.600 C 78.772 285.250,79.424 286.870,79.638 287.200 C 79.852 287.530,80.325 288.520,80.690 289.400 C 81.866 292.241,86.791 301.593,88.340 303.930 C 93.498 311.708,95.663 314.800,95.950 314.800 C 96.103 314.800,96.520 315.295,96.879 315.900 C 97.601 317.121,97.586 317.103,102.728 322.888 C 107.205 327.926,116.114 336.122,119.400 338.225 C 120.060 338.648,120.960 339.324,121.400 339.729 C 123.505 341.664,132.107 347.078,137.200 349.675 C 138.630 350.404,140.430 351.380,141.200 351.845 C 141.970 352.310,144.310 353.363,146.400 354.185 C 148.490 355.007,150.703 355.947,151.317 356.273 C 152.750 357.033,159.421 359.200,160.329 359.200 C 160.710 359.200,161.377 359.442,161.811 359.737 C 162.683 360.330,167.860 361.653,172.200 362.391 C 173.740 362.653,176.350 363.132,178.000 363.456 C 189.505 365.715,207.778 365.716,219.600 363.459 C 221.250 363.144,223.920 362.668,225.534 362.401 C 229.203 361.794,234.017 360.629,235.031 360.103 C 235.454 359.884,237.780 359.124,240.200 358.414 C 242.620 357.704,245.230 356.796,246.000 356.395 C 246.770 355.995,248.789 355.109,250.488 354.427 C 253.883 353.063,262.605 348.682,263.583 347.848 C 263.922 347.559,264.517 347.209,264.905 347.071 C 266.717 346.429,276.255 339.694,281.600 335.284 C 285.946 331.699,295.141 322.428,298.347 318.400 C 300.010 316.310,301.607 314.358,301.895 314.062 C 302.183 313.766,302.682 313.015,303.004 312.393 C 303.325 311.771,304.131 310.668,304.794 309.942 C 305.457 309.216,306.000 308.481,306.000 308.309 C 306.000 308.137,306.771 306.872,307.712 305.498 C 308.654 304.124,309.779 302.280,310.212 301.400 C 310.646 300.520,311.380 299.260,311.844 298.600 C 312.554 297.592,314.159 294.384,315.646 291.000 C 315.840 290.560,316.170 289.930,316.380 289.600 C 316.777 288.977,317.143 288.105,318.984 283.400 C 321.158 277.844,321.595 276.538,322.596 272.600 C 323.156 270.400,323.771 268.240,323.963 267.800 C 324.887 265.683,326.221 257.941,326.997 250.200 C 327.514 245.041,327.598 230.532,327.599 146.700 L 327.600 49.200 198.587 49.200 C 90.234 49.200,69.541 49.287,69.366 49.744 M283.603 79.200 C 283.883 79.200,284.312 79.464,284.556 79.787 C 284.800 80.109,286.174 80.981,287.608 81.724 C 289.042 82.466,291.018 83.580,291.999 84.199 C 292.980 84.819,294.864 85.882,296.186 86.563 C 297.509 87.243,298.942 88.115,299.371 88.500 C 299.800 88.885,300.365 89.200,300.626 89.200 C 303.232 89.200,301.666 90.597,295.000 94.217 C 293.900 94.815,292.730 95.518,292.400 95.780 C 292.070 96.042,290.450 96.944,288.800 97.784 C 287.150 98.624,285.530 99.535,285.200 99.808 C 284.870 100.082,283.490 100.877,282.134 101.575 C 280.778 102.274,279.563 103.120,279.434 103.456 C 279.305 103.791,279.199 135.686,279.199 174.333 C 279.198 250.402,279.336 244.273,277.381 255.000 C 277.084 256.629,276.313 259.310,276.001 259.800 C 275.861 260.020,275.406 261.280,274.991 262.600 C 274.576 263.920,274.093 265.171,273.918 265.380 C 273.743 265.589,273.600 266.034,273.600 266.368 C 273.600 271.250,258.666 291.831,250.600 298.065 C 249.940 298.575,248.987 299.399,248.482 299.896 C 247.977 300.393,247.426 300.800,247.257 300.800 C 247.089 300.800,246.599 301.115,246.169 301.500 C 243.874 303.556,233.833 309.600,232.713 309.600 C 232.529 309.600,231.077 310.203,229.489 310.940 C 224.735 313.144,216.533 315.600,213.922 315.600 C 213.393 315.600,212.789 315.755,212.580 315.944 C 211.157 317.230,193.982 317.679,188.400 316.575 C 186.750 316.249,184.523 315.814,183.450 315.607 C 180.367 315.014,170.621 312.314,170.400 311.991 C 170.290 311.831,168.776 311.131,167.037 310.436 C 161.615 308.272,154.942 304.278,148.800 299.522 C 145.359 296.857,135.942 287.201,134.221 284.573 C 133.366 283.268,132.422 281.930,132.122 281.600 C 131.302 280.698,127.235 273.747,126.421 271.856 C 126.028 270.945,125.077 268.850,124.306 267.200 C 123.012 264.430,121.255 258.952,120.587 255.600 C 120.433 254.830,120.129 253.978,119.911 253.708 C 118.412 251.846,117.965 239.755,118.086 204.424 L 118.200 171.049 120.540 169.784 C 121.826 169.088,122.996 168.357,123.140 168.159 C 123.283 167.962,124.660 167.189,126.200 166.442 C 127.740 165.695,129.540 164.695,130.200 164.218 C 130.860 163.742,132.795 162.652,134.500 161.795 C 136.205 160.939,137.600 160.121,137.600 159.980 C 137.600 158.846,140.897 158.290,142.520 159.150 C 144.615 160.260,149.736 163.174,151.600 164.316 C 152.370 164.787,153.926 165.633,155.057 166.196 C 156.189 166.758,157.539 167.544,158.057 167.943 C 158.576 168.342,159.852 169.089,160.893 169.602 L 162.787 170.535 161.293 171.558 C 160.472 172.120,158.540 173.221,157.000 174.004 C 155.460 174.787,153.750 175.713,153.200 176.062 C 152.650 176.411,150.760 177.473,149.000 178.423 C 147.240 179.372,144.450 180.882,142.800 181.777 L 139.800 183.405 139.684 211.603 C 139.534 248.043,139.724 249.566,146.113 263.325 C 146.810 264.824,147.597 266.232,147.863 266.453 C 148.130 266.674,148.738 267.607,149.215 268.527 C 152.027 273.948,161.928 283.601,168.000 286.840 C 168.990 287.368,169.980 288.013,170.200 288.274 C 170.420 288.535,172.220 289.400,174.200 290.196 C 176.180 290.993,178.340 291.884,179.000 292.178 C 188.093 296.216,213.934 296.150,219.351 292.075 C 219.598 291.890,220.700 291.413,221.800 291.015 C 225.048 289.841,227.035 288.881,227.584 288.220 C 227.866 287.879,228.253 287.600,228.443 287.600 C 230.134 287.600,242.800 277.570,242.800 276.231 C 242.800 275.990,243.149 275.575,243.575 275.308 C 244.666 274.627,248.567 269.260,250.287 266.075 C 251.081 264.604,251.938 263.130,252.192 262.800 C 253.146 261.558,255.946 253.446,256.955 249.000 C 258.286 243.137,258.400 236.347,258.400 163.242 L 258.400 90.527 260.428 89.364 C 261.543 88.724,264.061 87.300,266.022 86.200 C 267.983 85.100,269.908 83.930,270.299 83.600 C 270.691 83.270,271.702 82.679,272.548 82.286 C 273.393 81.894,275.280 80.796,276.742 79.846 C 280.180 77.613,280.369 77.561,281.847 78.450 C 282.533 78.862,283.323 79.200,283.603 79.200 M234.938 105.488 C 235.632 105.867,237.640 107.016,239.400 108.041 C 242.954 110.112,244.613 111.055,249.600 113.841 C 255.492 117.133,255.415 116.974,252.000 118.772 C 251.010 119.293,249.930 119.928,249.600 120.184 C 249.270 120.439,247.830 121.248,246.400 121.981 C 244.970 122.714,243.530 123.545,243.200 123.828 C 242.870 124.111,241.430 124.920,240.000 125.627 C 238.570 126.333,236.677 127.381,235.793 127.956 C 234.910 128.530,233.830 129.200,233.393 129.444 C 232.610 129.882,232.597 130.570,232.390 186.044 C 232.182 241.890,232.176 242.215,231.329 245.000 C 228.374 254.716,223.231 261.834,216.316 265.778 C 214.932 266.567,213.530 267.390,213.200 267.607 C 207.903 271.091,195.014 271.645,187.196 268.724 C 180.482 266.216,172.904 259.789,170.140 254.258 C 169.354 252.686,168.487 251.130,168.212 250.800 C 167.937 250.470,167.587 249.750,167.433 249.200 C 167.279 248.650,166.769 246.850,166.300 245.200 C 165.455 242.226,165.446 241.778,165.303 193.318 L 165.159 144.436 166.772 143.418 C 167.658 142.858,168.488 142.400,168.614 142.400 C 168.741 142.400,170.247 141.500,171.962 140.400 C 173.677 139.300,175.206 138.400,175.359 138.400 C 175.513 138.400,176.575 137.803,177.719 137.073 C 178.864 136.343,181.060 135.062,182.600 134.225 C 184.140 133.388,185.684 132.456,186.031 132.152 C 186.928 131.368,187.334 131.448,189.338 132.800 C 190.316 133.460,191.229 134.000,191.367 134.000 C 191.505 134.000,193.395 135.080,195.568 136.400 C 197.741 137.720,199.644 138.800,199.797 138.800 C 199.951 138.800,200.554 139.139,201.138 139.553 C 202.243 140.337,204.331 141.548,206.900 142.894 C 208.792 143.886,208.925 143.658,205.300 145.632 C 203.595 146.561,201.906 147.572,201.547 147.880 C 201.188 148.187,199.658 149.079,198.147 149.861 C 196.636 150.644,195.130 151.515,194.800 151.797 C 194.470 152.079,193.120 152.882,191.800 153.581 C 190.480 154.281,188.725 155.246,187.901 155.726 L 186.402 156.600 186.401 196.427 C 186.400 239.743,186.390 239.545,188.644 243.265 C 191.143 247.392,198.590 250.017,202.437 248.127 C 202.967 247.867,204.067 247.355,204.882 246.990 C 206.539 246.248,208.873 243.616,209.914 241.316 C 210.550 239.911,210.615 235.310,210.800 178.713 L 211.000 117.626 213.483 116.013 C 214.848 115.126,216.083 114.400,216.227 114.400 C 216.371 114.400,217.954 113.517,219.744 112.438 C 221.535 111.359,223.810 110.035,224.800 109.496 C 225.790 108.957,228.040 107.682,229.800 106.661 C 233.466 104.536,233.273 104.580,234.938 105.488 " stroke="none" fill="#043c74" fill-rule="evenodd"></path><path id="path1" d="" stroke="none" fill="#083c74" fill-rule="evenodd"></path><path id="path2" d="" stroke="none" fill="#083c74" fill-rule="evenodd"></path><path id="path3" d="" stroke="none" fill="#083c74" fill-rule="evenodd"></path><path id="path4" d="" stroke="none" fill="#083c74" fill-rule="evenodd"></path></g></svg>